                                        <svg xmlns="http://www.w3.org/2000/svg" width="25" height="26" viewBox="0 0 25 26" fill="none">
                                            <g clip-path="url(#clip0_238_687)">
                                                <path d="M6.81152 10.8543L3.08105 5.12188C5.40527 2.23125 8.8916 0.639457 12.4561 0.624809C14.5215 0.61016 16.6309 1.1375 18.5498 2.2459C20.6689 3.47637 22.2803 5.24395 23.3057 7.2752L13.2812 6.74786C10.4443 6.58184 7.74414 8.17852 6.81152 10.8543ZM8.41797 12.7342C8.41797 14.99 10.2441 16.8162 12.5 16.8162C14.7559 16.8162 16.582 14.99 16.582 12.7342C16.582 10.4783 14.7559 8.65215 12.5 8.65215C10.2441 8.65215 8.41797 10.4734 8.41797 12.7342ZM23.7939 8.37871L16.9727 8.73028C18.8232 10.8934 18.8525 14.0135 17.2949 16.4061L11.8213 24.824C14.0918 24.9461 16.4307 24.4481 18.5498 23.2176C23.7939 20.1902 25.918 13.8426 23.7939 8.37871ZM6.91894 15.0584L2.36328 6.09844C1.11816 8.00274 0.390625 10.2879 0.390625 12.7342C0.390625 18.7889 4.82422 23.8035 10.6201 24.6922L13.7305 18.5984C10.918 19.1258 8.20312 17.5828 6.91894 15.0584Z" fill="#25262A" />
                                            </g>
                                            <defs>
                                                <clipPath id="clip0_238_687">
                                                    <rect width="25" height="25" fill="white" transform="translate(0 0.234131)" />
                                                </clipPath>
                                            </defs>
                                        </svg>