                                        <svg xmlns="http://www.w3.org/2000/svg" width="25" height="26" viewBox="0 0 25 26" fill="none">
                                            <g clip-path="url(#clip0_238_688)">
                                                <path d="M1.25562 11.3749C1.26104 11.367 1.26685 11.3591 1.27231 11.3512C1.27129 11.3591 1.27012 11.367 1.26914 11.3749H1.25562ZM23.7445 12.1321C23.7445 9.98211 23.3659 8.00784 22.3382 6.1553C20.3369 2.57195 16.7926 0.624782 12.6413 0.624782C5.80874 0.611257 1.9833 5.76214 1.27231 11.3512C3.34404 8.3575 6.98877 5.42468 12.0328 5.24939C12.0328 5.24939 17.3876 5.24939 16.8873 10.3742H8.30068C8.61167 8.54876 9.20664 7.49407 9.97739 6.52044C6.31294 8.2242 4.02769 11.2126 4.08179 15.7155C4.12231 19.2042 6.52925 22.7876 9.97744 24.1128C14.0476 25.6678 19.3903 24.4643 21.7026 23.0716V17.9737C17.7542 20.7322 8.47651 20.9486 8.40894 14.6743H23.7445L23.7445 12.1321Z" fill="#25262A" />
                                            </g>
                                            <defs>
                                                <clipPath id="clip0_238_688">
                                                    <rect width="25" height="25" fill="white" transform="translate(0 0.234131)" />
                                                </clipPath>
                                            </defs>
                                        </svg>
