<svg xmlns="http://www.w3.org/2000/svg" width="25" height="26" viewBox="0 0 25 26" fill="none">
                                            <g clip-path="url(#clip0_238_690)">
                                                <path d="M24.126 11.7234C24.0918 11.5037 24.0576 11.3767 24.0576 11.3767C24.0576 11.3767 23.9697 11.4744 23.8281 11.6648C23.7842 11.1423 23.6914 10.6296 23.5449 10.1218C23.3643 9.49194 23.1299 8.88159 22.8369 8.29565C22.6514 7.90503 22.4365 7.53394 22.1875 7.18237C22.0996 7.05054 22.0068 6.9187 21.9141 6.79663C21.4844 6.09351 20.9863 5.65894 20.415 4.84351C20.0439 4.21851 19.7852 3.53003 19.6631 2.81226C19.5068 3.24683 19.3848 3.69116 19.3018 4.14526C18.7109 3.54956 18.2031 3.12964 17.8906 2.84155C16.377 1.41577 16.5527 0.678467 16.5527 0.678467C16.5527 0.678467 13.7061 3.85718 14.9365 7.16772C15.3613 8.29077 16.0986 9.27222 17.0557 9.99487C18.2471 10.9812 19.5361 11.7527 20.2148 13.7351C19.668 12.6951 18.8428 11.821 17.832 11.2205C18.1348 11.9382 18.291 12.7146 18.2861 13.491C18.2861 16.4695 15.8643 18.8865 12.8857 18.8816C12.4805 18.8816 12.0801 18.8376 11.6895 18.7449C11.2256 18.657 10.7764 18.5056 10.3516 18.2908C9.72168 17.9099 9.17969 17.407 8.75 16.8113L8.74023 16.7966L8.83789 16.8308C9.0625 16.9089 9.28711 16.9675 9.52148 17.0115C10.4346 17.2068 11.3916 17.0945 12.2363 16.6892C13.0908 16.2156 13.6035 15.864 14.0234 16.0056H14.0332C14.4434 16.1375 14.7656 15.7371 14.4727 15.322C13.9648 14.6677 13.1348 14.3455 12.3145 14.4919C11.46 14.614 10.6787 15.2244 9.56055 14.6335C9.4873 14.5945 9.41895 14.5554 9.35059 14.5115C9.27246 14.4675 9.58984 14.575 9.5166 14.5261C9.27246 14.4041 9.03809 14.2625 8.81348 14.1062C8.79883 14.0916 8.98438 14.1599 8.96484 14.1453C8.67676 13.95 8.42773 13.696 8.23242 13.4031C8.03223 13.0417 8.0127 12.6023 8.18359 12.2263C8.28613 12.0408 8.44727 11.8894 8.63769 11.8015C8.78418 11.8748 8.87207 11.9285 8.87207 11.9285C8.87207 11.9285 8.80859 11.8064 8.76953 11.7429C8.78418 11.738 8.79395 11.7429 8.80859 11.7332C8.93555 11.7869 9.21387 11.9285 9.36523 12.0164C9.46777 12.0701 9.55078 12.1482 9.61914 12.2458C9.61914 12.2458 9.66797 12.2214 9.63379 12.114C9.58008 11.9822 9.49219 11.8699 9.37012 11.7917H9.37988C9.49219 11.8503 9.59961 11.9187 9.70215 11.9919C9.79492 11.7771 9.83887 11.5427 9.8291 11.3083C9.83887 11.1814 9.81934 11.0496 9.77539 10.9275C9.73633 10.8494 9.7998 10.8201 9.86816 10.9031C9.8584 10.8396 9.83398 10.781 9.80957 10.7224V10.7175C9.80957 10.7175 9.84863 10.6638 9.86816 10.6443C9.91699 10.5955 9.9707 10.5515 10.0342 10.5125C10.3857 10.2927 10.7568 10.1023 11.1426 9.94604C11.4551 9.80933 11.7139 9.70679 11.7676 9.67261C11.8457 9.62378 11.9189 9.56519 11.9873 9.50171C12.2461 9.28198 12.4268 8.97437 12.4854 8.63745C12.4902 8.59351 12.4951 8.54956 12.5 8.50073V8.42749C12.4561 8.25659 12.1631 8.12964 10.625 7.98315C10.083 7.89526 9.64844 7.48999 9.52637 6.95288V6.948C9.81934 6.1814 10.3467 5.5271 11.0303 5.07788C11.0693 5.0437 10.874 5.08765 10.9131 5.05347C11.0449 4.98999 11.1768 4.9314 11.3135 4.88257C11.3818 4.85327 11.0205 4.71655 10.6982 4.75073C10.5029 4.7605 10.3076 4.80933 10.127 4.88745C10.2051 4.82397 10.4297 4.73608 10.376 4.73608C9.96582 4.81421 9.57031 4.96558 9.20898 5.17554C9.20898 5.13647 9.21387 5.10229 9.2334 5.06812C8.94531 5.19019 8.69629 5.3855 8.50098 5.62964C8.50586 5.58569 8.51074 5.54175 8.51074 5.4978C8.37891 5.59546 8.25684 5.70776 8.1543 5.83472L8.14941 5.8396C7.2998 5.51245 6.37695 5.43433 5.4834 5.61011L5.47363 5.60522H5.4834C5.29785 5.45386 5.13672 5.27808 5.00977 5.073L5 5.07788L4.98047 5.06812C4.92188 4.98022 4.86328 4.88257 4.7998 4.77515C4.75586 4.69702 4.71191 4.60913 4.66797 4.52124C4.66797 4.51636 4.66309 4.51147 4.6582 4.51147C4.63867 4.51147 4.62891 4.59448 4.61426 4.57495V4.57007C4.45801 4.1648 4.38477 3.73022 4.39941 3.29077L4.38965 3.29565C4.14062 3.46655 3.9502 3.71558 3.84766 4.00366C3.80371 4.1062 3.76953 4.16479 3.74023 4.22339V4.19897C3.74512 4.14526 3.76953 4.03784 3.76465 4.04761C3.75977 4.05737 3.75488 4.06226 3.75 4.06714C3.67676 4.15015 3.6084 4.2478 3.55957 4.35034C3.51562 4.44312 3.47656 4.54077 3.44727 4.63843C3.44238 4.65308 3.44727 4.62378 3.44727 4.5896C3.44727 4.55542 3.45215 4.49194 3.44727 4.50659L3.43262 4.54077C3.10547 5.26831 2.90039 6.04468 2.82715 6.84058C2.80762 6.97729 2.79785 7.11401 2.80273 7.24585V7.25562C2.56836 7.50952 2.36328 7.79272 2.18262 8.09058C1.5918 9.08667 1.15234 10.1658 0.874023 11.2937C1.06934 10.864 1.30371 10.4539 1.57227 10.0681C1.0498 11.3914 0.78125 12.8025 0.78125 14.2283C0.869141 13.8083 0.986328 13.3982 1.12305 12.9929C1.04004 14.6775 1.3623 16.3572 2.07031 17.8904C3.01758 20.0144 4.58984 21.7966 6.57715 23.0027C7.3877 23.5496 8.27148 23.9744 9.2041 24.2625C9.32617 24.3064 9.45312 24.3503 9.58008 24.3943C9.54102 24.3796 9.50195 24.3601 9.46289 24.3455C10.5664 24.6775 11.7188 24.8484 12.8711 24.8484C16.958 24.8484 18.3057 23.2908 18.4277 23.1394C18.6279 22.9587 18.7939 22.739 18.9111 22.49C18.9893 22.4558 19.0674 22.4216 19.1504 22.3875L19.1992 22.363L19.292 22.3191C19.9072 22.031 20.4883 21.6648 21.0156 21.24C21.8115 20.6687 22.3779 19.8386 22.6221 18.8914C22.7686 18.5447 22.7734 18.1589 22.6416 17.8074C22.6855 17.739 22.7246 17.6707 22.7734 17.5974C23.6523 16.1863 24.1504 14.575 24.2188 12.9148V12.7781C24.2188 12.4216 24.1895 12.0701 24.126 11.7234ZM9.52637 6.95776C9.50684 7.01147 9.48242 7.07007 9.46289 7.12866C9.48242 7.07007 9.50195 7.01636 9.52637 6.95776Z" fill="#25262A" />
                                            </g>
                                            <defs>
                                                <clipPath id="clip0_238_690">
                                                    <rect width="25" height="25" fill="white" transform="translate(0 0.234131)" />
                                                </clipPath>
                                            </defs>
                                        </svg>
