<svg xmlns="http://www.w3.org/2000/svg" width="25" height="26" viewBox="0 0 25 26" fill="none">
                                            <g clip-path="url(#clip0_238_691)">
                                                <path d="M15.7178 1.83081C7.40723 1.83081 3.38379 12.7585 8.51562 19.1697C10.2979 21.3865 12.8418 22.8611 15.7178 22.8611C17.4902 22.8611 19.1504 22.3191 20.5713 21.3767C18.4326 23.2908 15.5957 24.4529 12.5 24.4529C12.3096 24.4529 12.1094 24.4529 11.9189 24.4382C5.49805 24.1404 0.390625 18.8425 0.390625 12.3435C0.390625 5.65405 5.81055 0.234131 12.5 0.234131H12.5391C15.6201 0.248779 18.4326 1.41089 20.5664 3.31519C19.1504 2.36792 17.4854 1.83081 15.7178 1.83081ZM20.6885 21.2498C18.6914 22.4558 16.2598 22.4021 14.2432 20.9666C16.9873 19.9656 19.0137 16.4939 19.0137 12.3435C19.0137 8.20776 17.002 4.73608 14.2578 3.72046C16.2988 2.29468 18.7109 2.24097 20.7471 3.47632C25.918 8.29565 25.8984 16.45 20.6885 21.2498Z" fill="#25262A" />
                                            </g>
                                            <defs>
                                                <clipPath id="clip0_238_691">
                                                    <rect width="25" height="25" fill="white" transform="translate(0 0.234131)" />
                                                </clipPath>
                                            </defs>
                                        </svg>