 <svg xmlns="http://www.w3.org/2000/svg" width="25" height="26" viewBox="0 0 25 26" fill="none">
                                            <g clip-path="url(#clip0_238_689)">
                                                <path d="M11.5674 12.7732C11.5674 12.3289 11.8896 11.9089 12.3633 11.9089C12.7979 11.9089 13.2129 12.2214 13.2129 12.6951C13.2129 13.1394 12.9004 13.5593 12.4268 13.5593C11.9873 13.5593 11.5674 13.2322 11.5674 12.7732ZM24.6094 12.7341C24.6094 19.4236 19.1895 24.8435 12.5 24.8435C5.81055 24.8435 0.390625 19.4236 0.390625 12.7341C0.390625 6.04468 5.81055 0.624756 12.5 0.624756C19.1895 0.624756 24.6094 6.04468 24.6094 12.7341ZM23.3105 12.7341C23.3105 6.76245 18.4717 1.92358 12.5 1.92358C6.52832 1.92358 1.68945 6.76245 1.68945 12.7341C1.68945 18.7058 6.52832 23.5447 12.5 23.5447C18.4717 23.5447 23.3105 18.7058 23.3105 12.7341ZM19.7705 17.4509C19.7705 17.6267 20.4053 17.949 20.5664 18.0466C19.2285 20.073 17.1582 21.533 14.8096 22.114L14.5947 21.2107C14.5801 21.0886 14.502 21.074 14.3896 21.074C14.2969 21.074 14.2432 21.2107 14.2529 21.2791L14.4678 22.197C13.8184 22.3337 13.1592 22.4021 12.4951 22.4021C10.7227 22.4021 8.97949 21.9041 7.46582 20.9812C7.54883 20.8445 8.06152 20.1023 8.06152 19.9949C8.06152 19.9021 7.97852 19.8191 7.88574 19.8191C7.69531 19.8191 7.29004 20.6296 7.16797 20.7908C5.12695 19.4382 3.65234 17.3435 3.08594 14.9509L4.01855 14.7459C4.12598 14.7166 4.15527 14.6384 4.15527 14.5408C4.15527 14.448 4.01855 14.3943 3.94043 14.4041L3.02734 14.614C2.90527 13.9939 2.83691 13.3689 2.83691 12.7341C2.83691 10.9226 3.34961 9.14038 4.31152 7.61206C4.44824 7.69507 5.09766 8.1394 5.20508 8.1394C5.29785 8.1394 5.38086 8.07105 5.38086 7.97827C5.38086 7.78784 4.66309 7.42651 4.50195 7.31421C5.87891 5.30249 7.97363 3.85229 10.3516 3.31519L10.5566 4.21851C10.5859 4.32593 10.6641 4.35522 10.7617 4.35522C10.8594 4.35522 10.9082 4.21851 10.8984 4.14038L10.6934 3.24683C11.2891 3.1394 11.8945 3.07104 12.5049 3.07104C14.3164 3.07104 16.084 3.58374 17.627 4.54565C17.5342 4.68237 17.0996 5.31714 17.0996 5.42456C17.0996 5.51733 17.168 5.60034 17.2607 5.60034C17.4512 5.60034 17.8125 4.89722 17.9102 4.73608C19.9121 6.08862 21.3428 8.15405 21.8994 10.5076L21.1426 10.6687C21.0205 10.698 21.0059 10.7761 21.0059 10.8835C21.0059 10.9763 21.1426 11.03 21.2109 11.0203L21.9824 10.8445C22.1045 11.4646 22.1729 12.0994 22.1729 12.7341C22.1729 14.5066 21.6846 16.2498 20.7666 17.7488C20.6299 17.6804 20.0635 17.2751 19.9561 17.2751C19.8535 17.2751 19.7705 17.3582 19.7705 17.4509ZM18.1494 5.62476C17.5146 6.22046 11.5967 11.6648 11.4307 11.948L6.71387 19.7849C7.33398 19.2039 13.2666 13.7302 13.418 13.4714L18.1494 5.62476Z" fill="#25262A" />
                                            </g>
                                            <defs>
                                                <clipPath id="clip0_238_689">
                                                    <rect width="25" height="25" fill="white" transform="translate(0 0.234131)" />
                                                </clipPath>
                                            </defs>
                                        </svg>
